<svg xmlns="http://www.w3.org/2000/svg" viewBox="0 0 64 64" width="64" height="64">
  <circle cx="32" cy="32" r="30" fill="#1e1e2e" stroke="#6366f1" stroke-width="4"/>
  <g fill="#6366f1">
    <path d="M32 10 L32 54" stroke="#6366f1" stroke-width="2" opacity="0.3"/>
    <path d="M10 32 L54 32" stroke="#6366f1" stroke-width="2" opacity="0.3"/>
    
    <!-- Candlestick chart -->
    <rect x="20" y="20" width="4" height="12" fill="#F44336"/>
    <line x1="22" y1="18" x2="22" y2="20" stroke="#F44336" stroke-width="2"/>
    <line x1="22" y1="32" x2="22" y2="36" stroke="#F44336" stroke-width="2"/>
    
    <rect x="30" y="26" width="4" height="8" fill="#4CAF50"/>
    <line x1="32" y1="22" x2="32" y2="26" stroke="#4CAF50" stroke-width="2"/>
    <line x1="32" y1="34" x2="32" y2="38" stroke="#4CAF50" stroke-width="2"/>
    
    <rect x="40" y="18" width="4" height="14" fill="#4CAF50"/>
    <line x1="42" y1="16" x2="42" y2="18" stroke="#4CAF50" stroke-width="2"/>
    <line x1="42" y1="32" x2="42" y2="34" stroke="#4CAF50" stroke-width="2"/>
    
    <!-- AI brain node -->
    <circle cx="32" cy="47" r="5" fill="#6366f1"/>
    <circle cx="24" cy="44" r="2" fill="#6366f1"/>
    <circle cx="40" cy="44" r="2" fill="#6366f1"/>
    <circle cx="28" cy="52" r="2" fill="#6366f1"/>
    <circle cx="36" cy="52" r="2" fill="#6366f1"/>
    
    <line x1="32" y1="42" x2="32" y2="47" stroke="#6366f1" stroke-width="1.5"/>
    <line x1="32" y1="47" x2="24" y2="44" stroke="#6366f1" stroke-width="1.5"/>
    <line x1="32" y1="47" x2="40" y2="44" stroke="#6366f1" stroke-width="1.5"/>
    <line x1="32" y1="47" x2="28" y2="52" stroke="#6366f1" stroke-width="1.5"/>
    <line x1="32" y1="47" x2="36" y2="52" stroke="#6366f1" stroke-width="1.5"/>
  </g>
</svg>
